<mxfile host="Electron" modified="2023-10-11T11:30:27.211Z" agent="Mozilla/5.0 (Windows NT 10.0; Win64; x64) AppleWebKit/537.36 (KHTML, like Gecko) draw.io/21.5.1 Chrome/112.0.5615.204 Electron/24.6.0 Safari/537.36" etag="GEzcGG_0dleHv-XxAAD2" version="21.5.1" type="device">
  <diagram id="C5RBs43oDa-KdzZeNtuy" name="Page-1">
    <mxGraphModel dx="1418" dy="820" grid="1" gridSize="10" guides="1" tooltips="1" connect="1" arrows="1" fold="1" page="1" pageScale="1" pageWidth="827" pageHeight="1169" math="0" shadow="0">
      <root>
        <mxCell id="WIyWlLk6GJQsqaUBKTNV-0" />
        <mxCell id="WIyWlLk6GJQsqaUBKTNV-1" parent="WIyWlLk6GJQsqaUBKTNV-0" />
        <mxCell id="zHEz4ssrq1OdMshKdfq2-0" value="Utilisateur" style="swimlane;fontStyle=1;align=center;verticalAlign=top;childLayout=stackLayout;horizontal=1;startSize=26;horizontalStack=0;resizeParent=1;resizeParentMax=0;resizeLast=0;collapsible=1;marginBottom=0;whiteSpace=wrap;html=1;" parent="WIyWlLk6GJQsqaUBKTNV-1" vertex="1">
          <mxGeometry x="30" y="30" width="200" height="280" as="geometry" />
        </mxCell>
        <mxCell id="zHEz4ssrq1OdMshKdfq2-1" value="- imageProfil : string&lt;br&gt;&lt;font style=&quot;font-size: 6px;&quot;&gt;&lt;br&gt;&lt;/font&gt;- nom : string&lt;br&gt;&lt;font style=&quot;font-size: 8px;&quot;&gt;&lt;br&gt;&lt;/font&gt;- prenom : string&lt;br&gt;&lt;br&gt;- dateNaissance : date&lt;br&gt;&lt;br&gt;- e-mail : string&lt;br&gt;&lt;br&gt;- motDePasse : string&lt;br&gt;&lt;br&gt;- ville : string" style="text;strokeColor=none;fillColor=none;align=left;verticalAlign=top;spacingLeft=4;spacingRight=4;overflow=hidden;rotatable=0;points=[[0,0.5],[1,0.5]];portConstraint=eastwest;whiteSpace=wrap;html=1;" parent="zHEz4ssrq1OdMshKdfq2-0" vertex="1">
          <mxGeometry y="26" width="200" height="254" as="geometry" />
        </mxCell>
        <mxCell id="zHEz4ssrq1OdMshKdfq2-16" value="Habitude" style="swimlane;fontStyle=1;align=center;verticalAlign=top;childLayout=stackLayout;horizontal=1;startSize=26;horizontalStack=0;resizeParent=1;resizeParentMax=0;resizeLast=0;collapsible=1;marginBottom=0;whiteSpace=wrap;html=1;" parent="WIyWlLk6GJQsqaUBKTNV-1" vertex="1">
          <mxGeometry x="410" y="90" width="160" height="170" as="geometry" />
        </mxCell>
        <mxCell id="zHEz4ssrq1OdMshKdfq2-17" value="- dateBrossage : date&lt;br&gt;&lt;br&gt;- nbBrossage : int&lt;br&gt;&lt;br&gt;- nettLangue : bool&lt;br&gt;&lt;br&gt;- filDentaire : bool&lt;br&gt;&lt;br&gt;- bainBouche : bool" style="text;strokeColor=none;fillColor=none;align=left;verticalAlign=top;spacingLeft=4;spacingRight=4;overflow=hidden;rotatable=0;points=[[0,0.5],[1,0.5]];portConstraint=eastwest;whiteSpace=wrap;html=1;" parent="zHEz4ssrq1OdMshKdfq2-16" vertex="1">
          <mxGeometry y="26" width="160" height="144" as="geometry" />
        </mxCell>
        <mxCell id="zHEz4ssrq1OdMshKdfq2-24" value="Conseil" style="swimlane;fontStyle=1;align=center;verticalAlign=top;childLayout=stackLayout;horizontal=1;startSize=26;horizontalStack=0;resizeParent=1;resizeParentMax=0;resizeLast=0;collapsible=1;marginBottom=0;whiteSpace=wrap;html=1;" parent="WIyWlLk6GJQsqaUBKTNV-1" vertex="1">
          <mxGeometry x="570" y="400" width="160" height="120" as="geometry" />
        </mxCell>
        <mxCell id="zHEz4ssrq1OdMshKdfq2-25" value="- imageCons : string&lt;br&gt;&lt;br&gt;- titre : string&lt;br&gt;&lt;br&gt;- contenu : string" style="text;strokeColor=none;fillColor=none;align=left;verticalAlign=top;spacingLeft=4;spacingRight=4;overflow=hidden;rotatable=0;points=[[0,0.5],[1,0.5]];portConstraint=eastwest;whiteSpace=wrap;html=1;" parent="zHEz4ssrq1OdMshKdfq2-24" vertex="1">
          <mxGeometry y="26" width="160" height="94" as="geometry" />
        </mxCell>
        <mxCell id="zHEz4ssrq1OdMshKdfq2-32" value="Article" style="swimlane;fontStyle=1;align=center;verticalAlign=top;childLayout=stackLayout;horizontal=1;startSize=26;horizontalStack=0;resizeParent=1;resizeParentMax=0;resizeLast=0;collapsible=1;marginBottom=0;whiteSpace=wrap;html=1;" parent="WIyWlLk6GJQsqaUBKTNV-1" vertex="1">
          <mxGeometry x="50" y="480" width="160" height="120" as="geometry" />
        </mxCell>
        <mxCell id="zHEz4ssrq1OdMshKdfq2-33" value="- imageArt : string&lt;br&gt;&lt;br&gt;- titre : string&lt;br&gt;&lt;br&gt;- contenu : string" style="text;strokeColor=none;fillColor=none;align=left;verticalAlign=top;spacingLeft=4;spacingRight=4;overflow=hidden;rotatable=0;points=[[0,0.5],[1,0.5]];portConstraint=eastwest;whiteSpace=wrap;html=1;" parent="zHEz4ssrq1OdMshKdfq2-32" vertex="1">
          <mxGeometry y="26" width="160" height="94" as="geometry" />
        </mxCell>
        <mxCell id="zHEz4ssrq1OdMshKdfq2-52" value="GÃ¨re" style="endArrow=none;html=1;endSize=12;startArrow=none;startSize=14;startFill=0;edgeStyle=orthogonalEdgeStyle;align=center;verticalAlign=bottom;endFill=0;rounded=0;" parent="WIyWlLk6GJQsqaUBKTNV-1" source="zHEz4ssrq1OdMshKdfq2-0" target="zHEz4ssrq1OdMshKdfq2-16" edge="1">
          <mxGeometry x="0.0035" y="3" relative="1" as="geometry">
            <mxPoint x="150" y="207" as="sourcePoint" />
            <mxPoint x="355" y="300" as="targetPoint" />
            <Array as="points">
              <mxPoint x="420" y="160" />
              <mxPoint x="420" y="160" />
            </Array>
            <mxPoint as="offset" />
          </mxGeometry>
        </mxCell>
        <mxCell id="Um0jYHG1t8JGL0Ht-Zy6-11" value="*" style="edgeLabel;html=1;align=center;verticalAlign=middle;resizable=0;points=[];" parent="zHEz4ssrq1OdMshKdfq2-52" vertex="1" connectable="0">
          <mxGeometry x="0.867" relative="1" as="geometry">
            <mxPoint as="offset" />
          </mxGeometry>
        </mxCell>
        <mxCell id="Um0jYHG1t8JGL0Ht-Zy6-12" value="1" style="edgeLabel;html=1;align=center;verticalAlign=middle;resizable=0;points=[];" parent="zHEz4ssrq1OdMshKdfq2-52" vertex="1" connectable="0">
          <mxGeometry x="-0.8465" y="-4" relative="1" as="geometry">
            <mxPoint as="offset" />
          </mxGeometry>
        </mxCell>
        <mxCell id="zHEz4ssrq1OdMshKdfq2-65" value="A" style="endArrow=none;html=1;endSize=12;startArrow=none;startSize=14;startFill=0;edgeStyle=orthogonalEdgeStyle;align=center;verticalAlign=bottom;endFill=0;rounded=0;" parent="WIyWlLk6GJQsqaUBKTNV-1" source="zHEz4ssrq1OdMshKdfq2-16" target="zHEz4ssrq1OdMshKdfq2-24" edge="1">
          <mxGeometry x="0.0035" y="3" relative="1" as="geometry">
            <mxPoint x="530" y="317" as="sourcePoint" />
            <mxPoint x="610" y="370" as="targetPoint" />
            <Array as="points">
              <mxPoint x="650" y="350" />
              <mxPoint x="650" y="350" />
            </Array>
            <mxPoint as="offset" />
          </mxGeometry>
        </mxCell>
        <mxCell id="zHEz4ssrq1OdMshKdfq2-67" value="1..*" style="edgeLabel;html=1;align=center;verticalAlign=middle;resizable=0;points=[];" parent="zHEz4ssrq1OdMshKdfq2-65" vertex="1" connectable="0">
          <mxGeometry x="0.8226" y="2" relative="1" as="geometry">
            <mxPoint y="-10" as="offset" />
          </mxGeometry>
        </mxCell>
        <mxCell id="Um0jYHG1t8JGL0Ht-Zy6-13" value="*" style="edgeLabel;html=1;align=center;verticalAlign=middle;resizable=0;points=[];" parent="zHEz4ssrq1OdMshKdfq2-65" vertex="1" connectable="0">
          <mxGeometry x="-0.809" y="2" relative="1" as="geometry">
            <mxPoint x="-2" as="offset" />
          </mxGeometry>
        </mxCell>
        <mxCell id="xjmmQGeSRmdudiJdzYhm-0" value="Categorie" style="swimlane;fontStyle=1;align=center;verticalAlign=top;childLayout=stackLayout;horizontal=1;startSize=26;horizontalStack=0;resizeParent=1;resizeParentMax=0;resizeLast=0;collapsible=1;marginBottom=0;whiteSpace=wrap;html=1;" parent="WIyWlLk6GJQsqaUBKTNV-1" vertex="1">
          <mxGeometry x="220" y="360" width="160" height="120" as="geometry" />
        </mxCell>
        <mxCell id="xjmmQGeSRmdudiJdzYhm-1" value="- nom : string&lt;br&gt;&lt;br&gt;- description: string" style="text;strokeColor=none;fillColor=none;align=left;verticalAlign=top;spacingLeft=4;spacingRight=4;overflow=hidden;rotatable=0;points=[[0,0.5],[1,0.5]];portConstraint=eastwest;whiteSpace=wrap;html=1;" parent="xjmmQGeSRmdudiJdzYhm-0" vertex="1">
          <mxGeometry y="26" width="160" height="94" as="geometry" />
        </mxCell>
        <mxCell id="xjmmQGeSRmdudiJdzYhm-2" value="" style="edgeStyle=orthogonalEdgeStyle;rounded=0;orthogonalLoop=1;jettySize=auto;html=1;endArrow=none;endFill=0;" parent="WIyWlLk6GJQsqaUBKTNV-1" source="xjmmQGeSRmdudiJdzYhm-1" target="zHEz4ssrq1OdMshKdfq2-25" edge="1">
          <mxGeometry relative="1" as="geometry" />
        </mxCell>
        <mxCell id="xjmmQGeSRmdudiJdzYhm-3" value="*" style="edgeLabel;html=1;align=center;verticalAlign=middle;resizable=0;points=[];" parent="xjmmQGeSRmdudiJdzYhm-2" vertex="1" connectable="0">
          <mxGeometry x="0.8143" y="1" relative="1" as="geometry">
            <mxPoint as="offset" />
          </mxGeometry>
        </mxCell>
        <mxCell id="xjmmQGeSRmdudiJdzYhm-4" value="1" style="edgeLabel;html=1;align=center;verticalAlign=middle;resizable=0;points=[];" parent="xjmmQGeSRmdudiJdzYhm-2" vertex="1" connectable="0">
          <mxGeometry x="-0.887" y="-3" relative="1" as="geometry">
            <mxPoint as="offset" />
          </mxGeometry>
        </mxCell>
        <mxCell id="xjmmQGeSRmdudiJdzYhm-5" value="contient" style="edgeLabel;html=1;align=center;verticalAlign=middle;resizable=0;points=[];" parent="xjmmQGeSRmdudiJdzYhm-2" vertex="1" connectable="0">
          <mxGeometry x="-0.1565" y="1" relative="1" as="geometry">
            <mxPoint as="offset" />
          </mxGeometry>
        </mxCell>
      </root>
    </mxGraphModel>
  </diagram>
</mxfile>
